<svg width="94" height="94" viewBox="0 0 94 94" fill="none" xmlns="http://www.w3.org/2000/svg">
<g clip-path="url(#clip0_137_187)">
<path d="M41.5377 40.5234L56.3226 55.3083L56.3229 55.3086C56.6625 55.6476 57.0693 55.9117 57.5171 56.084C57.9649 56.2563 58.4438 56.3329 58.923 56.3089C59.4022 56.285 59.8711 56.161 60.2995 55.9449C60.7279 55.7288 61.1063 55.4254 61.4104 55.0543L61.4106 55.0539L81.75 30.1885V44.0625C81.75 44.9742 82.1122 45.8485 82.7568 46.4932C83.4015 47.1378 84.2758 47.5 85.1875 47.5C86.0992 47.5 86.9735 47.1378 87.6182 46.4932C88.2628 45.8485 88.625 44.9742 88.625 44.0625V20.5625C88.625 19.6508 88.2628 18.7765 87.6182 18.1318C86.9735 17.4872 86.0992 17.125 85.1875 17.125H61.6875C60.7758 17.125 59.9015 17.4872 59.2568 18.1318C58.6122 18.7765 58.25 19.6508 58.25 20.5625C58.25 21.4742 58.6122 22.3485 59.2568 22.9932C59.9015 23.6378 60.7758 24 61.6875 24H77.9343L58.4956 47.7597L43.5584 32.8168L43.5581 32.8165C43.2066 32.4654 42.7831 32.1946 42.3169 32.0228C41.8507 31.8511 41.3527 31.7824 40.8574 31.8216C40.3621 31.8608 39.8812 32.007 39.4478 32.2499C39.0145 32.4928 38.639 32.8267 38.3471 33.2287L41.5377 40.5234ZM41.5377 40.5234L20.4029 69.5838L20.3973 69.5914L20.3915 69.5988C19.8417 70.298 19.0422 70.7568 18.1612 70.8789C17.2801 71.0009 16.386 70.7767 15.6668 70.2533C14.9476 69.7299 14.4593 68.9482 14.3045 68.0723C14.1496 67.1964 14.3403 66.2946 14.8365 65.5563L14.8417 65.5487L14.8471 65.5412L38.3469 33.229L41.5377 40.5234ZM0 -0.5H-0.5V0V94V94.5H0H94H94.5V94V88.125V87.625H94H6.375V0V-0.5H5.875H0Z" fill="#F5F5F5" stroke="#F5F5F5"/>
</g>
<defs>
<clipPath id="clip0_137_187">
<rect width="94" height="94" fill="white"/>
</clipPath>
</defs>
</svg>
