<svg width="135" height="135" viewBox="0 0 135 135" fill="none" xmlns="http://www.w3.org/2000/svg">
<g clip-path="url(#clip0_228_2)">
<path fill-rule="evenodd" clip-rule="evenodd" d="M0 0H8.4375V126.562H135V135H0V0ZM84.375 97.0312C84.375 98.1501 84.8195 99.2232 85.6106 100.014C86.4018 100.806 87.4749 101.25 88.5938 101.25H122.344C123.463 101.25 124.536 100.806 125.327 100.014C126.118 99.2232 126.562 98.1501 126.562 97.0312V63.2812C126.562 62.1624 126.118 61.0893 125.327 60.2981C124.536 59.507 123.463 59.0625 122.344 59.0625C121.225 59.0625 120.152 59.507 119.361 60.2981C118.569 61.0893 118.125 62.1624 118.125 63.2812V85.2188L87.6403 47.9503C87.2671 47.4948 86.8027 47.1225 86.277 46.8573C85.7512 46.5921 85.1757 46.4399 84.5876 46.4105C83.9995 46.3811 83.4117 46.4751 82.8622 46.6865C82.3126 46.898 81.8133 47.2221 81.3966 47.6381L59.5687 69.4659L28.7213 27.0506C28.0464 26.1926 27.0653 25.6295 25.984 25.4797C24.9027 25.3299 23.8054 25.6051 22.9228 26.2474C22.0401 26.8897 21.4408 27.8492 21.2508 28.9241C21.0608 29.9991 21.2948 31.1059 21.9037 32.0119L55.6538 78.4181C56.012 78.9116 56.4729 79.3215 57.0048 79.6197C57.5368 79.9179 58.127 80.0972 58.7349 80.1454C59.3428 80.1935 59.9539 80.1092 60.5261 79.8985C61.0983 79.6877 61.618 79.3553 62.0494 78.9244L84.0628 56.9025L113.442 92.8125H88.5938C87.4749 92.8125 86.4018 93.257 85.6106 94.0481C84.8195 94.8393 84.375 95.9124 84.375 97.0312Z" fill="white"/>
<path d="M32.5 81.8438C32.8398 81.8438 33.1657 81.9787 33.406 82.219C33.6463 82.4593 33.7812 82.7852 33.7812 83.125V85.2604H41.0417C41.3815 85.2604 41.7074 85.3954 41.9476 85.6357C42.1879 85.876 42.3229 86.2019 42.3229 86.5417C42.3229 86.8815 42.1879 87.2074 41.9476 87.4476C41.7074 87.6879 41.3815 87.8229 41.0417 87.8229H33.7812V97.2188H36.7708C38.6964 97.2188 40.5431 97.9837 41.9047 99.3453C43.2663 100.707 44.0312 102.554 44.0312 104.479C44.0312 106.405 43.2663 108.251 41.9047 109.613C40.5431 110.975 38.6964 111.74 36.7708 111.74H33.7812V113.875C33.7812 114.215 33.6463 114.541 33.406 114.781C33.1657 115.021 32.8398 115.156 32.5 115.156C32.1602 115.156 31.8343 115.021 31.594 114.781C31.3537 114.541 31.2188 114.215 31.2188 113.875V111.74H22.25C21.9102 111.74 21.5843 111.605 21.344 111.364C21.1037 111.124 20.9688 110.798 20.9688 110.458C20.9688 110.119 21.1037 109.793 21.344 109.552C21.5843 109.312 21.9102 109.177 22.25 109.177H31.2188V99.7812H28.2292C26.3036 99.7812 24.4569 99.0163 23.0953 97.6547C21.7337 96.2931 20.9688 94.4464 20.9688 92.5208C20.9688 90.5953 21.7337 88.7485 23.0953 87.3869C24.4569 86.0254 26.3036 85.2604 28.2292 85.2604H31.2188V83.125C31.2188 82.7852 31.3537 82.4593 31.594 82.219C31.8343 81.9787 32.1602 81.8438 32.5 81.8438ZM31.2188 87.8229H28.2292C26.9832 87.8229 25.7883 88.3179 24.9072 89.1989C24.0262 90.0799 23.5312 91.2749 23.5312 92.5208C23.5312 93.7668 24.0262 94.9617 24.9072 95.8428C25.7883 96.7238 26.9832 97.2188 28.2292 97.2188H31.2188V87.8229ZM33.7812 99.7812V109.177H36.7708C38.0168 109.177 39.2117 108.682 40.0928 107.801C40.9738 106.92 41.4688 105.725 41.4688 104.479C41.4688 103.233 40.9738 102.038 40.0928 101.157C39.2117 100.276 38.0168 99.7812 36.7708 99.7812H33.7812Z" fill="white"/>
</g>
<defs>
<clipPath id="clip0_228_2">
<rect width="135" height="135" fill="white"/>
</clipPath>
</defs>
</svg>
