<svg width="136" height="135" viewBox="0 0 136 135" fill="none" xmlns="http://www.w3.org/2000/svg">
<mask id="mask0_175_2244" style="mask-type:alpha" maskUnits="userSpaceOnUse" x="0" y="0" width="136" height="135">
<rect x="0.5" width="135" height="135" fill="#D9D9D9"/>
</mask>
<g mask="url(#mask0_175_2244)">
<path d="M28.625 54.0859H107.375V37.2123C107.375 36.3461 107.015 35.5525 106.294 34.8315C105.573 34.1106 104.779 33.7501 103.913 33.7501H32.0872C31.2209 33.7501 30.4273 34.1106 29.7064 34.8315C28.9855 35.5525 28.625 36.3461 28.625 37.2123V54.0859ZM32.0872 118.125C29.4978 118.125 27.3359 117.258 25.6016 115.524C23.8672 113.789 23 111.627 23 109.038V37.2123C23 34.6229 23.8672 32.4611 25.6016 30.7267C27.3359 28.9923 29.4978 28.1251 32.0872 28.1251H42.0378V15.5771H48.0959V28.1251H88.3372V15.5771H93.9622V28.1251H103.913C106.502 28.1251 108.664 28.9923 110.398 30.7267C112.133 32.4611 113 34.6229 113 37.2123V66.7534C112.084 66.415 111.157 66.1628 110.22 65.9968C109.282 65.8309 108.334 65.6795 107.375 65.5426V59.7123H28.625V109.038C28.625 109.904 28.9855 110.698 29.7064 111.419C30.4273 112.14 31.2209 112.5 32.0872 112.5H69.7958C70.0911 113.553 70.468 114.53 70.9264 115.432C71.3839 116.333 71.8616 117.231 72.3594 118.125H32.0872ZM103.913 123.75C97.6466 123.75 92.33 121.567 87.9631 117.2C83.5963 112.834 81.4128 107.517 81.4128 101.25C81.4128 94.9829 83.5963 89.6664 87.9631 85.3004C92.33 80.9335 97.6466 78.7501 103.913 78.7501C110.18 78.7501 115.497 80.9335 119.864 85.3004C124.23 89.6664 126.413 94.9829 126.413 101.25C126.413 107.517 124.23 112.834 119.864 117.2C115.497 121.567 110.18 123.75 103.913 123.75ZM113.228 113.636L116.299 110.564L106.077 100.342V85.0248H101.75V102.159L113.228 113.636Z" fill="#234C7A"/>
</g>
</svg>
