<svg width="130" height="131" viewBox="0 0 130 131" fill="none" xmlns="http://www.w3.org/2000/svg">
<path d="M89.375 110.919L78.8531 100.397L73.125 106.125L89.375 122.375L121.875 89.8751L116.147 84.147L89.375 110.919Z" fill="#234C7A"/>
<path d="M60.9375 114.25H32.5V16.7499H65V41.1249C65.0064 43.2778 65.8645 45.3407 67.3869 46.8631C68.9092 48.3854 70.9721 49.2435 73.125 49.2499H97.5V73.6249H105.625V41.1249C105.639 40.591 105.538 40.0603 105.327 39.5694C105.117 39.0785 104.803 38.639 104.406 38.2812L75.9688 9.84367C75.6127 9.44499 75.1735 9.12924 74.6821 8.91867C74.1908 8.7081 73.6593 8.60783 73.125 8.62492H32.5C30.3471 8.63135 28.2842 9.48943 26.7619 11.0118C25.2395 12.5341 24.3814 14.597 24.375 16.7499V114.25C24.3814 116.403 25.2395 118.466 26.7619 119.988C28.2842 121.51 30.3471 122.368 32.5 122.375H60.9375V114.25ZM73.125 18.3749L95.875 41.1249H73.125V18.3749Z" fill="#234C7A"/>
</svg>
