<svg width="130" height="130" viewBox="0 0 130 130" fill="none" xmlns="http://www.w3.org/2000/svg">
<path d="M89.375 110.419L78.8531 99.8968L73.125 105.625L89.375 121.875L121.875 89.375L116.147 83.6469L89.375 110.419Z" fill="#F5F5F5"/>
<path d="M60.9375 113.75H32.5V16.2499H65V40.6249C65.0064 42.7778 65.8645 44.8407 67.3869 46.3631C68.9092 47.8854 70.9721 48.7435 73.125 48.7499H97.5V73.1249H105.625V40.6249C105.639 40.091 105.538 39.5603 105.327 39.0694C105.117 38.5785 104.803 38.139 104.406 37.7812L75.9688 9.34367C75.6127 8.94499 75.1735 8.62924 74.6821 8.41867C74.1908 8.2081 73.6593 8.10783 73.125 8.12492H32.5C30.3471 8.13135 28.2842 8.98943 26.7619 10.5118C25.2395 12.0341 24.3814 14.097 24.375 16.2499V113.75C24.3814 115.903 25.2395 117.966 26.7619 119.488C28.2842 121.01 30.3471 121.868 32.5 121.875H60.9375V113.75ZM73.125 17.8749L95.875 40.6249H73.125V17.8749Z" fill="#F5F5F5"/>
</svg>
