<svg width="117" height="117" viewBox="0 0 117 117" fill="none" xmlns="http://www.w3.org/2000/svg">
<path fill-rule="evenodd" clip-rule="evenodd" d="M10.9688 102.375H109.688V95.0625H14.625V0H7.3125V98.7188L10.9688 102.375ZM21.9375 84.0938V25.5938L25.5938 21.9375H40.2188L43.875 25.5938V84.0938L40.2188 87.75H25.5938L21.9375 84.0938ZM36.5625 80.4375V29.25H29.25V80.4375H36.5625ZM80.4375 10.9688V84.0938L84.0938 87.75H98.7188L102.375 84.0938V10.9688L98.7188 7.3125H84.0938L80.4375 10.9688ZM95.0625 14.625V80.4375H87.75V14.625H95.0625ZM51.1875 84.0938V40.2188L54.8438 36.5625H69.4688L73.125 40.2188V84.0938L69.4688 87.75H54.8438L51.1875 84.0938ZM65.8125 80.4375V43.875H58.5V80.4375H65.8125Z" fill="white"/>
</svg>
