<svg width="135" height="135" viewBox="0 0 135 135" fill="none" xmlns="http://www.w3.org/2000/svg">
<path d="M50.6419 33.75C50.6419 29.2789 52.418 24.991 55.5795 21.8295C58.741 18.668 63.0289 16.8918 67.5 16.8918C71.9711 16.8918 76.259 18.668 79.4205 21.8295C82.582 24.991 84.3581 29.2789 84.3581 33.75C84.3581 38.221 82.582 42.5089 79.4205 45.6705C76.259 48.832 71.9711 50.6081 67.5 50.6081C63.0289 50.6081 58.741 48.832 55.5795 45.6705C52.418 42.5089 50.6419 38.221 50.6419 33.75ZM67.5 25.3293C66.3942 25.3293 65.2992 25.5471 64.2776 25.9703C63.2559 26.3935 62.3276 27.0138 61.5457 27.7957C60.7638 28.5776 60.1435 29.5059 59.7204 30.5275C59.2972 31.5492 59.0794 32.6442 59.0794 33.75C59.0794 34.8558 59.2972 35.9508 59.7204 36.9724C60.1435 37.994 60.7638 38.9223 61.5457 39.7043C62.3276 40.4862 63.2559 41.1064 64.2776 41.5296C65.2992 41.9528 66.3942 42.1706 67.5 42.1706C69.7333 42.1706 71.8751 41.2834 73.4543 39.7043C75.0335 38.1251 75.9206 35.9833 75.9206 33.75C75.9206 31.5167 75.0335 29.3749 73.4543 27.7957C71.8751 26.2165 69.7333 25.3293 67.5 25.3293ZM92.8125 37.9687C92.8125 36.3067 93.1399 34.6609 93.7759 33.1254C94.4119 31.5899 95.3442 30.1946 96.5194 29.0194C97.6947 27.8442 99.0899 26.9119 100.625 26.2759C102.161 25.6398 103.807 25.3125 105.469 25.3125C107.131 25.3125 108.777 25.6398 110.312 26.2759C111.848 26.9119 113.243 27.8442 114.418 29.0194C115.593 30.1946 116.526 31.5899 117.162 33.1254C117.798 34.6609 118.125 36.3067 118.125 37.9687C118.125 41.3254 116.792 44.5445 114.418 46.918C112.045 49.2915 108.825 50.625 105.469 50.625C102.112 50.625 98.8929 49.2915 96.5194 46.918C94.1459 44.5445 92.8125 41.3254 92.8125 37.9687ZM105.469 33.75C104.35 33.75 103.277 34.1944 102.486 34.9856C101.694 35.7768 101.25 36.8498 101.25 37.9687C101.25 39.0876 101.694 40.1607 102.486 40.9518C103.277 41.743 104.35 42.1875 105.469 42.1875C106.588 42.1875 107.661 41.743 108.452 40.9518C109.243 40.1607 109.688 39.0876 109.688 37.9687C109.688 36.8498 109.243 35.7768 108.452 34.9856C107.661 34.1944 106.588 33.75 105.469 33.75ZM29.5313 25.3125C26.1746 25.3125 22.9554 26.6459 20.5819 29.0194C18.2084 31.3929 16.875 34.6121 16.875 37.9687C16.875 41.3254 18.2084 44.5445 20.5819 46.918C22.9554 49.2915 26.1746 50.625 29.5313 50.625C32.8879 50.625 36.1071 49.2915 38.4806 46.918C40.8541 44.5445 42.1875 41.3254 42.1875 37.9687C42.1875 34.6121 40.8541 31.3929 38.4806 29.0194C36.1071 26.6459 32.8879 25.3125 29.5313 25.3125ZM25.3125 37.9687C25.3125 36.8498 25.757 35.7768 26.5481 34.9856C27.3393 34.1944 28.4124 33.75 29.5313 33.75C30.6501 33.75 31.7232 34.1944 32.5144 34.9856C33.3055 35.7768 33.75 36.8498 33.75 37.9687C33.75 39.0876 33.3055 40.1607 32.5144 40.9518C31.7232 41.743 30.6501 42.1875 29.5313 42.1875C28.4124 42.1875 27.3393 41.743 26.5481 40.9518C25.757 40.1607 25.3125 39.0876 25.3125 37.9687ZM36.0113 59.0625C34.53 61.6278 33.7501 64.5377 33.75 67.5H16.875V88.5937C16.8743 90.6924 17.3956 92.7584 18.3918 94.6056C19.388 96.4528 20.828 98.0232 22.582 99.1756C24.3361 100.328 26.3492 101.026 28.4401 101.207C30.531 101.388 32.6341 101.046 34.56 100.212C35.1844 103.005 36.1631 105.671 37.4288 108.16C34.2264 109.453 30.7556 109.94 27.3211 109.578C23.8866 109.217 20.5935 108.017 17.7309 106.085C14.8684 104.153 12.5239 101.548 10.9036 98.498C9.28316 95.4482 8.43635 92.0472 8.4375 88.5937V67.5C8.4375 65.2622 9.32645 63.1161 10.9088 61.5338C12.4911 59.9514 14.6372 59.0625 16.875 59.0625H36.0113ZM97.5713 108.16C100.774 109.453 104.244 109.94 107.679 109.578C111.113 109.217 114.407 108.017 117.269 106.085C120.132 104.153 122.476 101.548 124.096 98.498C125.717 95.4482 126.564 92.0472 126.562 88.5937V67.5C126.562 65.2622 125.674 63.1161 124.091 61.5338C122.509 59.9514 120.363 59.0625 118.125 59.0625H98.9888C100.423 61.5431 101.25 64.4203 101.25 67.5H118.125V88.5937C118.126 90.6924 117.604 92.7584 116.608 94.6056C115.612 96.4528 114.172 98.0232 112.418 99.1756C110.664 100.328 108.651 101.026 106.56 101.207C104.469 101.388 102.366 101.046 100.44 100.212C99.7988 103.013 98.8425 105.663 97.5713 108.16ZM50.625 59.054C48.3872 59.054 46.2411 59.943 44.6588 61.5253C43.0765 63.1077 42.1875 65.2538 42.1875 67.4915V92.8125C42.1875 99.5258 44.8543 105.964 49.6014 110.711C54.3484 115.458 60.7867 118.125 67.5 118.125C74.2133 118.125 80.6516 115.458 85.3986 110.711C90.1457 105.964 92.8125 99.5258 92.8125 92.8125V67.5C92.8125 65.2622 91.9236 63.1161 90.3412 61.5338C88.7589 59.9514 86.6128 59.0625 84.375 59.0625L50.625 59.054ZM50.625 67.4915H84.375V92.8125C84.375 97.288 82.5971 101.58 79.4324 104.745C76.2677 107.91 71.9755 109.687 67.5 109.687C63.0245 109.687 58.7323 107.91 55.5676 104.745C52.4029 101.58 50.625 97.288 50.625 92.8125V67.4915Z" fill="white"/>
</svg>
