<svg width="164" height="164" viewBox="0 0 164 164" fill="none" xmlns="http://www.w3.org/2000/svg">
<path d="M100.719 97.4539L91.412 88.1488C94.1095 84.9103 95.4546 80.7565 95.1675 76.5514C94.8805 72.3464 92.9832 68.4139 89.8706 65.5721C86.758 62.7302 82.6695 61.1978 78.4558 61.2935C74.242 61.3893 70.2274 63.1059 67.2471 66.0862C64.2668 69.0666 62.5502 73.0812 62.4544 77.2949C62.3587 81.5086 63.8911 85.5971 66.733 88.7097C69.5748 91.8224 73.5073 93.7196 77.7123 94.0067C81.9174 94.2938 86.0712 92.9486 89.3097 90.2511L98.6148 99.558C98.7529 99.6962 98.917 99.8058 99.0975 99.8805C99.278 99.9553 99.4715 99.9938 99.6668 99.9938C99.8622 99.9938 100.056 99.9553 100.236 99.8805C100.417 99.8058 100.581 99.6962 100.719 99.558C100.857 99.4199 100.967 99.2558 101.041 99.0753C101.116 98.8948 101.155 98.7013 101.155 98.506C101.155 98.3106 101.116 98.1171 101.041 97.9366C100.967 97.7561 100.857 97.592 100.719 97.4539ZM65.4653 77.6876C65.4653 75.0407 66.2502 72.4532 67.7208 70.2523C69.1914 68.0515 71.2815 66.3361 73.727 65.3232C76.1725 64.3102 78.8634 64.0452 81.4595 64.5616C84.0555 65.078 86.4402 66.3526 88.3119 68.2243C90.1836 70.096 91.4582 72.4806 91.9746 75.0767C92.491 77.6728 92.2259 80.3637 91.213 82.8092C90.2001 85.2546 88.4847 87.3448 86.2838 88.8154C84.083 90.2859 81.4955 91.0708 78.8485 91.0708C75.3003 91.0669 71.8985 89.6556 69.3895 87.1466C66.8805 84.6377 65.4693 81.2359 65.4653 77.6876Z" fill="#F5F5F5"/>
<path d="M15.4781 132.702C14.5054 132.702 13.6917 132.375 13.0371 131.721C12.3825 131.066 12.0575 130.257 12.0621 129.293C12.0666 128.329 12.3939 127.518 13.0439 126.859C13.694 126.2 14.5031 125.873 15.4713 125.877H148.174C149.142 125.877 149.951 126.204 150.601 126.859C151.251 127.514 151.579 128.323 151.583 129.286C151.588 130.25 151.26 131.061 150.601 131.721C149.942 132.38 149.133 132.707 148.174 132.702H15.4781ZM31.4745 119.065C28.3334 119.065 25.7128 118.013 23.6127 115.908C21.5126 113.804 20.4602 111.183 20.4557 108.047V41.4363C20.4557 38.2997 21.508 35.6792 23.6127 33.5745C25.7173 31.4698 28.3357 30.4198 31.4676 30.4243H132.178C135.314 30.4243 137.932 31.4744 140.033 33.5745C142.133 35.6746 143.185 38.2952 143.189 41.4363V108.053C143.189 111.19 142.137 113.808 140.033 115.908C137.928 118.008 135.307 119.061 132.171 119.065H31.4745ZM31.4745 112.247H132.178C133.223 112.247 134.184 111.808 135.062 110.931C135.939 110.054 136.376 109.092 136.371 108.047V41.4363C136.371 40.3908 135.935 39.4293 135.062 38.552C134.184 37.6747 133.221 37.2361 132.171 37.2361H31.4745C30.4244 37.2361 29.4607 37.6747 28.5834 38.552C27.7106 39.4248 27.2742 40.3862 27.2742 41.4363V108.053C27.2742 109.099 27.7106 110.058 28.5834 110.931C29.4562 111.804 30.4176 112.242 31.4676 112.247" fill="#F5F5F5"/>
</svg>
