<svg width="118" height="118" viewBox="0 0 118 118" fill="none" xmlns="http://www.w3.org/2000/svg">
<path d="M113.831 63.3688C112.996 73.8658 109.165 83.9024 102.793 92.2862C96.4215 100.67 87.7772 107.049 77.8872 110.664C67.9972 114.28 57.2771 114.98 47.0007 112.682C36.7242 110.385 27.3233 105.185 19.9148 97.7021C12.5064 90.2188 7.40176 80.7661 5.20746 70.4671C3.01315 60.168 3.82138 49.4556 7.53613 39.6024C11.2509 29.7492 17.716 21.1694 26.1634 14.8824C34.6108 8.59539 44.6854 4.86542 55.1903 4.13562" stroke="#F5F5F5" stroke-width="7" stroke-linecap="round" stroke-linejoin="round"/>
<path d="M82.6067 68.2256C81.0786 72.1587 78.5943 75.6488 75.3784 78.3804C72.1624 81.112 68.3163 82.9989 64.1879 83.8705C60.0594 84.742 55.7788 84.5708 51.7332 83.3722C47.6875 82.1736 44.0044 79.9855 41.017 77.0057C38.0295 74.026 35.832 70.3485 34.623 66.306C33.414 62.2634 33.2317 57.9833 34.0926 53.8526C34.9536 49.7219 36.8306 45.871 39.5539 42.648C42.2772 39.4251 45.7609 36.9318 49.69 35.3936M58.9981 59.0022L80.1527 37.8475M80.1527 37.8475L97.0765 42.0784L114 25.1547L97.0765 20.9238L92.8456 4L75.9218 20.9238L80.1527 37.8475Z" stroke="#F5F5F5" stroke-width="7" stroke-linecap="round" stroke-linejoin="round"/>
</svg>
