<svg width="128" height="127" viewBox="0 0 128 127" fill="none" xmlns="http://www.w3.org/2000/svg">
<mask id="mask0_272_72" style="mask-type:alpha" maskUnits="userSpaceOnUse" x="51" y="52" width="25" height="24">
<rect x="51.7188" y="52" width="24" height="24" fill="#D9D9D9"/>
</mask>
<g mask="url(#mask0_272_72)">
<path d="M55.7188 73V68C55.7188 67.45 55.9146 66.9792 56.3063 66.5875C56.6979 66.1958 57.1688 66 57.7188 66H69.7188C70.2688 66 70.7396 66.1958 71.1313 66.5875C71.5229 66.9792 71.7188 67.45 71.7188 68V73H55.7188ZM60.7188 65C59.3354 65 58.1562 64.5125 57.1812 63.5375C56.2062 62.5625 55.7188 61.3833 55.7188 60C55.7188 58.6167 56.2062 57.4375 57.1812 56.4625C58.1562 55.4875 59.3354 55 60.7188 55H66.7188C68.1021 55 69.2812 55.4875 70.2563 56.4625C71.2313 57.4375 71.7188 58.6167 71.7188 60C71.7188 61.3833 71.2313 62.5625 70.2563 63.5375C69.2812 64.5125 68.1021 65 66.7188 65H60.7188ZM57.7188 71H69.7188V68H57.7188V71ZM60.7188 63H66.7188C67.5521 63 68.2604 62.7083 68.8438 62.125C69.4271 61.5417 69.7188 60.8333 69.7188 60C69.7188 59.1667 69.4271 58.4583 68.8438 57.875C68.2604 57.2917 67.5521 57 66.7188 57H60.7188C59.8854 57 59.1771 57.2917 58.5938 57.875C58.0104 58.4583 57.7188 59.1667 57.7188 60C57.7188 60.8333 58.0104 61.5417 58.5938 62.125C59.1771 62.7083 59.8854 63 60.7188 63ZM60.7188 61C61.0021 61 61.2396 60.9042 61.4313 60.7125C61.6229 60.5208 61.7188 60.2833 61.7188 60C61.7188 59.7167 61.6229 59.4792 61.4313 59.2875C61.2396 59.0958 61.0021 59 60.7188 59C60.4354 59 60.1979 59.0958 60.0062 59.2875C59.8146 59.4792 59.7188 59.7167 59.7188 60C59.7188 60.2833 59.8146 60.5208 60.0062 60.7125C60.1979 60.9042 60.4354 61 60.7188 61ZM66.7188 61C67.0021 61 67.2396 60.9042 67.4313 60.7125C67.6229 60.5208 67.7188 60.2833 67.7188 60C67.7188 59.7167 67.6229 59.4792 67.4313 59.2875C67.2396 59.0958 67.0021 59 66.7188 59C66.4354 59 66.1979 59.0958 66.0063 59.2875C65.8146 59.4792 65.7188 59.7167 65.7188 60C65.7188 60.2833 65.8146 60.5208 66.0063 60.7125C66.1979 60.9042 66.4354 61 66.7188 61Z" fill="#234C7A"/>
</g>
<path d="M64 92.8125L54.9761 88.5389C51.3712 86.8216 48.3252 84.1201 46.1896 80.7461C44.054 77.3722 42.9158 73.4632 42.9062 69.4702V42.1875H85.0938V69.4744C85.0842 73.4674 83.946 77.3764 81.8103 80.7504C79.6747 84.1243 76.6288 86.8258 73.0239 88.5431L64 92.8125ZM51.3438 50.625V69.4744C51.3502 71.8692 52.0338 74.2133 53.3155 76.2362C54.5971 78.2592 56.4248 79.8785 58.5873 80.9072L64 83.4722L69.4127 80.9114C71.5759 79.8824 73.4039 78.2625 74.6857 76.2387C75.9674 74.2149 76.6506 71.8699 76.6562 69.4744V50.625H51.3438ZM13.8813 70.2675C15.0875 69.4522 16.0622 68.3386 16.7107 67.035C17.3591 65.7314 17.6592 64.2822 17.5818 62.8283C17.5044 61.3744 17.052 59.9653 16.2688 58.738C15.4855 57.5107 14.398 56.5069 13.112 55.8243C11.8259 55.1417 10.3851 54.8035 8.92971 54.8426C7.47427 54.8817 6.05372 55.2968 4.80618 56.0474C3.55865 56.798 2.52658 57.8587 1.81033 59.1263C1.09408 60.3939 0.718034 61.8253 0.718751 63.2812C0.718751 66.6098 2.65938 69.4575 5.46063 70.8328C6.86159 81.9448 11.4042 92.4262 18.555 101.046C25.7058 109.666 35.1679 116.067 45.8298 119.496L48.4202 111.464C39.3636 108.554 31.3149 103.142 25.2039 95.8525C19.0929 88.5628 15.1648 79.6929 13.8813 70.2675ZM120.219 81.4556L112.187 78.8569C109.278 87.9142 103.866 95.9638 96.5764 102.076C89.2866 108.187 80.4163 112.112 70.9905 113.396C70.1747 112.19 69.061 111.217 67.7576 110.569C66.4542 109.921 65.0055 109.622 63.5521 109.7C62.0987 109.777 60.6902 110.23 59.4634 111.013C58.2365 111.796 57.2331 112.883 56.5506 114.168C55.8681 115.454 55.5297 116.894 55.5684 118.349C55.607 119.804 56.0214 121.224 56.7712 122.472C57.5209 123.719 58.5806 124.751 59.8473 125.468C61.114 126.185 62.5446 126.562 64 126.562C67.3286 126.562 70.1763 124.622 71.5516 121.821C82.663 120.42 93.1441 115.878 101.764 108.728C110.384 101.578 116.789 92.1168 120.219 81.4556ZM122.539 55.7297C121.138 44.6177 116.596 34.1363 109.445 25.5163C102.294 16.8963 92.8321 10.4958 82.1702 7.06641L79.5798 15.0989C88.6364 18.0081 96.6851 23.4202 102.796 30.71C108.907 37.9997 112.831 46.8696 114.115 56.295C112.909 57.1109 111.935 58.2247 111.287 59.5283C110.64 60.8319 110.34 62.2809 110.418 63.7344C110.496 65.188 110.949 66.5966 111.732 67.8234C112.516 69.0503 113.603 70.0536 114.889 70.7359C116.175 71.4181 117.615 71.7561 119.07 71.717C120.526 71.6779 121.946 71.263 123.193 70.5127C124.44 69.7623 125.472 68.7021 126.189 67.4349C126.905 66.1678 127.281 64.7369 127.281 63.2812C127.28 61.7047 126.835 60.1602 125.998 58.8247C125.16 57.4892 123.963 56.4166 122.544 55.7297M64 1.0062e-07C60.6714 1.0062e-07 57.8237 1.94063 56.4484 4.74188C45.337 6.1425 34.8559 10.6845 26.236 17.8345C17.616 24.9846 11.2152 34.4457 7.78516 45.1069L15.8177 47.7056C18.7262 38.6483 24.138 30.5987 31.4278 24.4869C38.7176 18.3751 47.5879 14.4506 57.0137 13.1667C57.8296 14.3722 58.9435 15.3461 60.2471 15.9938C61.5507 16.6414 62.9996 16.9408 64.4532 16.8629C65.9067 16.7849 67.3154 16.3323 68.5422 15.5489C69.769 14.7655 70.7723 13.678 71.4546 12.3922C72.1369 11.1064 72.4749 9.66592 72.4358 8.21083C72.3966 6.75573 71.9818 5.3355 71.2314 4.08818C70.4811 2.84085 69.4208 1.80885 68.1537 1.09249C66.8865 0.376133 65.4556 -0.00022467 64 1.0062e-07Z" fill="#234C7A"/>
</svg>
