<svg width="136" height="135" viewBox="0 0 136 135" fill="none" xmlns="http://www.w3.org/2000/svg">
<mask id="mask0_175_2233" style="mask-type:alpha" maskUnits="userSpaceOnUse" x="0" y="0" width="136" height="135">
<rect x="0.5" width="135" height="135" fill="#D9D9D9"/>
</mask>
<g mask="url(#mask0_175_2233)">
<path d="M34.257 127.969C29.9614 127.969 26.3084 126.465 23.2981 123.459C20.2869 120.452 18.7812 116.802 18.7812 112.507C18.7812 108.211 20.2855 104.558 23.2939 101.548C26.3014 98.5369 29.9539 97.0312 34.2514 97.0312C35.4551 97.0312 36.6373 97.1808 37.7979 97.4798C38.9595 97.7798 40.0559 98.182 41.0872 98.6864L52.2387 84.8081C49.9025 82.2619 48.2909 79.4133 47.404 76.2623C46.5171 73.1105 46.3367 69.9408 46.8626 66.7533L30.6584 61.3884C29.2447 63.66 27.3861 65.4806 25.0826 66.8503C22.7792 68.2209 20.21 68.9062 17.375 68.9062C13.0784 68.9062 9.42593 67.403 6.4175 64.3964C3.41 61.3898 1.90625 57.7392 1.90625 53.4445C1.90625 49.1489 3.40953 45.4959 6.41609 42.4856C9.42265 39.4744 13.0733 37.9688 17.368 37.9688C21.6636 37.9688 25.3165 39.4725 28.3269 42.48C31.3381 45.4884 32.8437 49.1409 32.8437 53.4375C32.8437 53.7694 32.8348 54.0469 32.817 54.27C32.7983 54.4941 32.7889 54.7177 32.7889 54.9408L48.9396 60.5559C50.4903 57.6853 52.6198 55.2225 55.3282 53.1675C58.0357 51.1125 61.1417 49.793 64.646 49.2089V31.943C61.0264 31.0927 58.1023 29.2627 55.8739 26.453C53.6454 23.6442 52.5312 20.4441 52.5312 16.8525C52.5312 12.5766 54.0345 8.93344 57.041 5.92312C60.0476 2.91187 63.6982 1.40625 67.9929 1.40625C72.2885 1.40625 75.9415 2.91 78.9518 5.9175C81.9631 8.92594 83.4687 12.5784 83.4687 16.875C83.4687 20.4516 82.3399 23.6442 80.0824 26.453C77.8259 29.2627 74.9163 31.0927 71.3539 31.943V49.2089C74.8582 49.793 77.9553 51.1125 80.6449 53.1675C83.3346 55.2225 85.473 57.6853 87.0602 60.5559L103.211 54.9408C103.174 54.6811 103.156 54.4486 103.156 54.2433V53.4375C103.156 49.1409 104.659 45.4884 107.666 42.48C110.673 39.4725 114.323 37.9688 118.618 37.9688C122.913 37.9688 126.566 39.472 129.577 42.4786C132.588 45.4852 134.094 49.1358 134.094 53.4305C134.094 57.7261 132.59 61.3791 129.582 64.3894C126.574 67.4006 122.921 68.9062 118.625 68.9062C115.801 68.9062 113.22 68.2209 110.882 66.8503C108.544 65.4806 106.697 63.66 105.341 61.3884L89.1373 66.7533C89.6632 69.9408 89.4827 73.0959 88.5959 76.2188C87.709 79.3416 86.0974 82.1864 83.7612 84.7533L94.9127 98.5458C95.944 98.077 97.0404 97.7077 98.202 97.4377C99.3626 97.1667 100.545 97.0312 101.749 97.0312C106.046 97.0312 109.699 98.5345 112.706 101.541C115.714 104.548 117.219 108.198 117.219 112.493C117.219 116.789 115.715 120.442 112.709 123.452C109.702 126.463 106.052 127.969 101.757 127.969C97.4613 127.969 93.8084 126.465 90.798 123.457C87.7868 120.449 86.2812 116.797 86.2812 112.5C86.2812 110.726 86.5681 109.019 87.1418 107.378C87.7146 105.738 88.571 104.232 89.711 102.862L78.5581 88.875C75.3631 90.7791 71.8381 91.7311 67.9831 91.7311C64.129 91.7311 60.5867 90.7791 57.356 88.875L46.2889 102.862C47.3923 104.232 48.2398 105.738 48.8314 107.378C49.4229 109.019 49.7187 110.726 49.7187 112.5C49.7187 116.797 48.2154 120.449 45.2089 123.457C42.2023 126.465 38.5517 127.969 34.257 127.969ZM17.375 60.4688C19.3297 60.4688 20.99 59.7853 22.3559 58.4184C23.7228 57.0525 24.4062 55.3922 24.4062 53.4375C24.4062 51.4828 23.7228 49.8225 22.3559 48.4566C20.99 47.0897 19.3297 46.4062 17.375 46.4062C15.4203 46.4062 13.76 47.0897 12.3941 48.4566C11.0272 49.8225 10.3437 51.4828 10.3437 53.4375C10.3437 55.3922 11.0272 57.0525 12.3941 58.4184C13.76 59.7853 15.4203 60.4688 17.375 60.4688ZM34.25 119.531C36.2047 119.531 37.865 118.848 39.2309 117.481C40.5978 116.115 41.2812 114.455 41.2812 112.5C41.2812 110.545 40.5978 108.885 39.2309 107.519C37.865 106.152 36.2047 105.469 34.25 105.469C32.2953 105.469 30.635 106.152 29.269 107.519C27.9022 108.885 27.2187 110.545 27.2187 112.5C27.2187 114.455 27.9022 116.115 29.269 117.481C30.635 118.848 32.2953 119.531 34.25 119.531ZM67.9999 23.9062C69.9546 23.9062 71.6149 23.2228 72.9809 21.8559C74.3478 20.49 75.0312 18.8297 75.0312 16.875C75.0312 14.9203 74.3478 13.26 72.9809 11.8941C71.6149 10.5272 69.9546 9.84375 67.9999 9.84375C66.0453 9.84375 64.3849 10.5272 63.019 11.8941C61.6521 13.26 60.9687 14.9203 60.9687 16.875C60.9687 18.8297 61.6521 20.49 63.019 21.8559C64.3849 23.2228 66.0453 23.9062 67.9999 23.9062ZM67.9999 83.2936C71.6131 83.2936 74.6796 82.0331 77.1996 79.5122C79.7206 76.9922 80.981 73.9256 80.981 70.3125C80.981 66.6994 79.7206 63.6328 77.1996 61.1128C74.6796 58.5919 71.6131 57.3314 67.9999 57.3314C64.3868 57.3314 61.3203 58.5919 58.8003 61.1128C56.2793 63.6328 55.0189 66.6994 55.0189 70.3125C55.0189 73.9256 56.2793 76.9922 58.8003 79.5122C61.3203 82.0331 64.3868 83.2936 67.9999 83.2936ZM101.75 119.531C103.705 119.531 105.365 118.848 106.731 117.481C108.098 116.115 108.781 114.455 108.781 112.5C108.781 110.545 108.098 108.885 106.731 107.519C105.365 106.152 103.705 105.469 101.75 105.469C99.7952 105.469 98.1349 106.152 96.769 107.519C95.4021 108.885 94.7187 110.545 94.7187 112.5C94.7187 114.455 95.4021 116.115 96.769 117.481C98.1349 118.848 99.7952 119.531 101.75 119.531ZM118.625 60.4688C120.58 60.4688 122.24 59.7853 123.606 58.4184C124.973 57.0525 125.656 55.3922 125.656 53.4375C125.656 51.4828 124.973 49.8225 123.606 48.4566C122.24 47.0897 120.58 46.4062 118.625 46.4062C116.67 46.4062 115.01 47.0897 113.644 48.4566C112.277 49.8225 111.594 51.4828 111.594 53.4375C111.594 55.3922 112.277 57.0525 113.644 58.4184C115.01 59.7853 116.67 60.4688 118.625 60.4688Z" fill="#234C7A"/>
</g>
</svg>
