<svg width="164" height="164" viewBox="0 0 164 164" fill="none" xmlns="http://www.w3.org/2000/svg">
<path d="M15.4781 132.702C14.5054 132.702 13.6917 132.375 13.0371 131.721C12.3825 131.066 12.0575 130.257 12.0621 129.293C12.0666 128.329 12.3939 127.518 13.0439 126.859C13.694 126.2 14.5031 125.873 15.4713 125.877H148.174C149.142 125.877 149.951 126.204 150.601 126.859C151.251 127.514 151.579 128.323 151.583 129.286C151.588 130.25 151.26 131.061 150.601 131.721C149.942 132.38 149.133 132.707 148.174 132.702H15.4781ZM31.4745 119.065C28.3334 119.065 25.7128 118.013 23.6127 115.908C21.5126 113.804 20.4602 111.183 20.4557 108.047V41.4363C20.4557 38.2997 21.508 35.6792 23.6127 33.5745C25.7173 31.4698 28.3357 30.4198 31.4676 30.4243H132.178C135.314 30.4243 137.932 31.4744 140.033 33.5745C142.133 35.6746 143.185 38.2952 143.189 41.4363V108.053C143.189 111.19 142.137 113.808 140.033 115.908C137.928 118.008 135.307 119.061 132.171 119.065H31.4745ZM31.4745 112.247H132.178C133.223 112.247 134.184 111.808 135.062 110.931C135.939 110.054 136.376 109.092 136.371 108.047V41.4363C136.371 40.3908 135.935 39.4293 135.062 38.552C134.184 37.6747 133.221 37.2361 132.171 37.2361H31.4745C30.4244 37.2361 29.4607 37.6747 28.5834 38.552C27.7106 39.4248 27.2742 40.3862 27.2742 41.4363V108.053C27.2742 109.099 27.7106 110.058 28.5834 110.931C29.4562 111.804 30.4176 112.242 31.4676 112.247" fill="#F5F5F5"/>
</svg>
