<svg width="134" height="134" viewBox="0 0 134 134" fill="none" xmlns="http://www.w3.org/2000/svg">
<path d="M66.9998 42.9219C62.2376 42.9219 57.5823 44.3341 53.6227 46.9798C49.6631 49.6255 46.5769 53.386 44.7545 57.7857C42.9321 62.1854 42.4553 67.0267 43.3843 71.6974C44.3134 76.3681 46.6066 80.6584 49.974 84.0258C53.3414 87.3932 57.6317 89.6864 62.3024 90.6155C66.9731 91.5445 71.8144 91.0677 76.2141 89.2453C80.6138 87.4229 84.3743 84.3367 87.02 80.3771C89.6658 76.4175 91.0779 71.7622 91.0779 67C91.0696 60.6167 88.5302 54.4971 84.0164 49.9834C79.5027 45.4697 73.3832 42.9302 66.9998 42.9219ZM66.9998 84.7969C63.4799 84.7969 60.0391 83.7531 57.1124 81.7976C54.1857 79.842 51.9046 77.0625 50.5576 73.8106C49.2106 70.5586 48.8582 66.9803 49.5449 63.528C50.2316 60.0758 51.9266 56.9047 54.4155 54.4157C56.9044 51.9268 60.0755 50.2318 63.5278 49.5451C66.98 48.8584 70.5584 49.2109 73.8104 50.5579C77.0623 51.9049 79.8418 54.1859 81.7974 57.1126C83.7529 60.0393 84.7967 63.4801 84.7967 67C84.7967 71.7201 82.9216 76.2468 79.5841 79.5843C76.2465 82.9219 71.7198 84.7969 66.9998 84.7969ZM112.015 68.4866C112.047 67.4973 112.047 66.5028 112.015 65.5135L120.04 55.4844C120.346 55.1005 120.559 54.65 120.66 54.169C120.761 53.6881 120.747 53.1902 120.621 52.7154C119.366 47.9838 117.486 43.4406 115.03 39.2055C114.787 38.7757 114.445 38.4094 114.033 38.1366C113.621 37.8637 113.15 37.6919 112.659 37.6352L99.8612 36.2167C99.1877 35.4943 98.4898 34.7964 97.7675 34.1229L96.3437 21.3196C96.287 20.8287 96.1152 20.3581 95.8423 19.9461C95.5695 19.5341 95.2032 19.1923 94.7734 18.9485C90.5432 16.5009 86.0074 14.6246 81.2844 13.3686C80.8084 13.2442 80.3098 13.2334 79.8288 13.3371C79.3479 13.4407 78.898 13.6559 78.5154 13.9653L68.4654 22.0106C67.4746 21.9793 66.4831 21.9793 65.4923 22.0106L55.4842 13.9601C55.1003 13.6534 54.6497 13.441 54.1688 13.3401C53.6879 13.2392 53.19 13.2526 52.7152 13.3791C47.9836 14.6343 43.4403 16.5143 39.2053 18.9694C38.7754 19.2132 38.4092 19.555 38.1363 19.9671C37.8635 20.3791 37.6917 20.8497 37.6349 21.3406L36.2374 34.1386C35.515 34.8156 34.8171 35.5135 34.1436 36.2324L21.3351 37.6875C20.8442 37.7443 20.3736 37.916 19.9616 38.1889C19.5496 38.4618 19.2077 38.828 18.9639 39.2578C16.5164 43.488 14.6401 48.0238 13.3841 52.7468C13.2627 53.217 13.252 53.7089 13.3528 54.1839C13.4536 54.6589 13.6632 55.1041 13.9651 55.4844L22.0103 65.5344C21.9791 66.5252 21.9791 67.5167 22.0103 68.5075L13.9599 78.5418C13.6531 78.9257 13.4408 79.3763 13.3399 79.8572C13.239 80.3381 13.2523 80.836 13.3788 81.3108C14.6363 86.0333 16.5162 90.5677 18.9692 94.7946C19.213 95.2244 19.5548 95.5906 19.9668 95.8635C20.3788 96.1364 20.8494 96.3081 21.3403 96.3649L34.1384 97.7834C34.8154 98.5057 35.5133 99.2036 36.2321 99.8771L37.6873 112.665C37.744 113.156 37.9158 113.626 38.1887 114.038C38.4615 114.45 38.8278 114.792 39.2576 115.036C43.4878 117.483 48.0235 119.36 52.7466 120.616C53.2214 120.742 53.7193 120.756 54.2002 120.655C54.6811 120.554 55.1317 120.341 55.5156 120.035L65.5132 112.016C66.5025 112.047 67.4971 112.047 68.4864 112.016L78.5416 120.066C79.0991 120.511 79.7913 120.753 80.5045 120.752C80.7765 120.751 81.0473 120.716 81.3106 120.647C86.0331 119.39 90.5675 117.51 94.7943 115.057C95.2242 114.813 95.5904 114.471 95.8633 114.059C96.1361 113.647 96.3079 113.177 96.3646 112.686L97.7832 99.8876C98.5055 99.2141 99.2034 98.5162 99.8769 97.7939L112.68 96.3701C113.171 96.3134 113.642 96.1416 114.054 95.8687C114.466 95.5959 114.808 95.2296 115.051 94.7998C117.5 90.5702 119.376 86.0342 120.631 81.3108C120.758 80.836 120.771 80.3381 120.67 79.8572C120.569 79.3763 120.357 78.9257 120.05 78.5418L112.015 68.4866ZM110.393 90.2773L98.0187 91.6539C97.2455 91.7431 96.5329 92.1161 96.0192 92.7008C94.9847 93.8663 93.8818 94.9693 92.7163 96.0037C92.1316 96.5175 91.7585 97.23 91.6694 98.0032L90.2928 110.372C87.3956 111.917 84.3516 113.169 81.2059 114.109L71.4857 106.331C70.9282 105.886 70.2359 105.644 69.5228 105.645H69.3343C67.7792 105.734 66.2203 105.734 64.6653 105.645C63.8886 105.598 63.122 105.84 62.5139 106.326L52.7989 114.109C49.6559 113.164 46.6152 111.907 43.7225 110.356L42.3459 97.9928C42.2567 97.2196 41.8837 96.507 41.299 95.9932C40.1335 94.9588 39.0305 93.8559 37.9961 92.6903C37.4823 92.1057 36.7698 91.7326 35.9966 91.6435L23.6278 90.2668C22.0845 87.3781 20.8325 84.3429 19.8904 81.2061L27.6687 71.4859C28.1542 70.8778 28.3967 70.1112 28.3492 69.3346C28.2601 67.7795 28.2601 66.2206 28.3492 64.6655C28.3967 63.8889 28.1542 63.1222 27.6687 62.5142L19.8904 52.7992C20.8356 49.6561 22.0928 46.6155 23.6435 43.7228L36.0071 42.3461C36.7803 42.257 37.4928 41.8839 38.0066 41.2992C39.041 40.1337 40.1439 39.0308 41.3095 37.9963C41.8941 37.4826 42.2672 36.77 42.3563 35.9968L43.733 23.628C46.6218 22.0847 49.6569 20.8327 52.7937 19.8906L62.5139 27.6689C63.122 28.1544 63.8886 28.3969 64.6653 28.3494C66.2203 28.2603 67.7792 28.2603 69.3343 28.3494C70.111 28.3969 70.8776 28.1544 71.4857 27.6689L81.2007 19.8906C84.3437 20.8358 87.3843 22.0931 90.2771 23.6437L91.6537 36.0178C91.7428 36.791 92.1159 37.5035 92.7006 38.0173C93.8661 39.0517 94.969 40.1546 96.0035 41.3202C96.5172 41.9049 97.2298 42.2779 98.003 42.3671L110.372 43.7437C111.914 46.6291 113.166 49.6608 114.109 52.7939L106.331 62.5142C105.845 63.1222 105.603 63.8889 105.65 64.6655C105.739 66.2206 105.739 67.7795 105.65 69.3346C105.603 70.1112 105.845 70.8778 106.331 71.4859L114.109 81.2009C113.167 84.3436 111.914 87.3842 110.367 90.2773H110.393Z" fill="#F5F5F5"/>
<path d="M67 48.2501C61.8643 48.095 56.8764 49.9809 53.128 53.495C49.3796 57.0091 47.1762 61.8651 47 67.0001C47.1762 72.1351 49.3796 76.9911 53.128 80.5052C56.8764 84.0193 61.8643 85.9052 67 85.7501C72.1357 85.9052 77.1236 84.0193 80.872 80.5052C84.6204 76.9911 86.8238 72.1351 87 67.0001C86.8238 61.8651 84.6204 57.0091 80.872 53.495C77.1236 49.9809 72.1357 48.095 67 48.2501ZM67 82.6251C62.6929 82.7807 58.4995 81.2242 55.3371 78.296C52.1747 75.3678 50.3007 71.3064 50.125 67.0001C50.3007 62.6938 52.1747 58.6323 55.3371 55.7041C58.4995 52.776 62.6929 51.2195 67 51.3751C71.3071 51.2195 75.5005 52.776 78.6629 55.7041C81.8253 58.6323 83.6993 62.6938 83.875 67.0001C83.6993 71.3064 81.8253 75.3678 78.6629 78.296C75.5005 81.2242 71.3071 82.7807 67 82.6251Z" fill="#F5F5F5"/>
<path d="M68.5752 57.625H65.4502V68.575H74.5002V65.45H68.5752V57.625Z" fill="#F5F5F5"/>
</svg>
