<svg width="136" height="136" viewBox="0 0 136 136" fill="none" xmlns="http://www.w3.org/2000/svg">
<path d="M67.9999 43.7423C63.2021 43.7423 58.5121 45.165 54.5229 47.8305C50.5338 50.496 47.4246 54.2845 45.5886 58.7171C43.7525 63.1496 43.2722 68.0271 44.2082 72.7326C45.1441 77.4382 47.4545 81.7605 50.847 85.153C54.2395 88.5455 58.5618 90.8559 63.2674 91.7918C67.9729 92.7278 72.8504 92.2475 77.2829 90.4114C81.7155 88.5754 85.504 85.4662 88.1695 81.4771C90.835 77.4879 92.2577 72.7979 92.2577 68.0001C92.2493 61.5691 89.6909 55.4039 85.1435 50.8565C80.5961 46.3091 74.4309 43.7507 67.9999 43.7423ZM67.9999 85.9298C64.4537 85.9298 60.9872 84.8783 58.0387 82.9081C55.0901 80.938 52.792 78.1378 51.435 74.8615C50.0779 71.5853 49.7229 67.9803 50.4147 64.5022C51.1065 61.0242 52.8141 57.8294 55.3217 55.3219C57.8292 52.8144 61.0239 51.1068 64.5019 50.415C67.98 49.7231 71.585 50.0782 74.8612 51.4353C78.1375 52.7923 80.9377 55.0904 82.9079 58.0389C84.878 60.9875 85.9296 64.454 85.9296 68.0001C85.9296 72.7554 84.0405 77.3159 80.6781 80.6783C77.3156 84.0408 72.7551 85.9298 67.9999 85.9298ZM113.351 69.4978C113.383 68.5011 113.383 67.4992 113.351 66.5025L121.436 56.3986C121.745 56.0118 121.959 55.5579 122.06 55.0734C122.162 54.5889 122.148 54.0873 122.021 53.6089C120.756 48.842 118.862 44.2649 116.389 39.9982C116.143 39.5651 115.799 39.1962 115.384 38.9213C114.969 38.6464 114.495 38.4733 114 38.4162L101.107 36.9871C100.428 36.2593 99.7249 35.5562 98.9971 34.8777L97.5628 21.9789C97.5056 21.4843 97.3325 21.0102 97.0576 20.5951C96.7827 20.18 96.4138 19.8356 95.9807 19.59C91.719 17.1242 87.1494 15.2339 82.3911 13.9685C81.9115 13.8432 81.4092 13.8323 80.9246 13.9367C80.4401 14.0412 79.9868 14.258 79.6014 14.5697L69.4764 22.6749C68.4782 22.6434 67.4793 22.6434 66.4811 22.6749L56.3983 14.5644C56.0115 14.2554 55.5576 14.0415 55.0731 13.9398C54.5886 13.8381 54.087 13.8516 53.6086 13.979C48.8418 15.2436 44.2646 17.1377 39.9979 19.6111C39.5649 19.8567 39.1959 20.2011 38.921 20.6162C38.6461 21.0313 38.473 21.5054 38.4159 21.9999L37.0079 34.8935C36.2801 35.5755 35.577 36.2787 34.8985 37.0029L21.9944 38.4689C21.4998 38.5261 21.0257 38.6991 20.6106 38.974C20.1955 39.2489 19.8512 39.6179 19.6055 40.0509C17.1397 44.3126 15.2494 48.8823 13.984 53.6406C13.8617 54.1142 13.851 54.6098 13.9525 55.0884C14.0541 55.5669 14.2652 56.0154 14.5694 56.3986L22.6747 66.5236C22.6431 67.5218 22.6431 68.5207 22.6747 69.5189L14.5641 79.6281C14.2551 80.0149 14.0412 80.4687 13.9395 80.9532C13.8378 81.4378 13.8513 81.9393 13.9788 82.4177C15.2456 87.1755 17.1395 91.7437 19.6108 96.0021C19.8564 96.4351 20.2008 96.8041 20.6159 97.079C21.031 97.3539 21.5051 97.527 21.9997 97.5841L34.8932 99.0132C35.5752 99.741 36.2784 100.444 37.0026 101.123L38.4686 114.006C38.5258 114.5 38.6988 114.974 38.9737 115.389C39.2486 115.804 39.6176 116.149 40.0506 116.394C44.3124 118.86 48.882 120.751 53.6403 122.016C54.1186 122.143 54.6203 122.157 55.1048 122.055C55.5893 121.954 56.0432 121.74 56.4299 121.431L66.5022 113.352C67.4989 113.383 68.5008 113.383 69.4975 113.352L79.6278 121.462C80.1894 121.91 80.8868 122.154 81.6053 122.153C81.8794 122.152 82.1522 122.117 82.4174 122.048C87.1752 120.781 91.7434 118.887 96.0018 116.416C96.4349 116.17 96.8038 115.826 97.0787 115.41C97.3536 114.995 97.5267 114.521 97.5839 114.027L99.0129 101.133C99.7407 100.455 100.444 99.7515 101.122 99.0238L114.021 97.5894C114.516 97.5322 114.99 97.3592 115.405 97.0843C115.82 96.8094 116.164 96.4404 116.41 96.0074C118.877 91.7462 120.767 87.1764 122.032 82.4177C122.159 81.9393 122.172 81.4378 122.071 80.9532C121.969 80.4687 121.755 80.0149 121.446 79.6281L113.351 69.4978ZM111.717 91.4511L99.2503 92.838C98.4713 92.9278 97.7534 93.3037 97.2358 93.8927C96.1936 95.067 95.0825 96.1781 93.9083 97.2203C93.3192 97.7379 92.9434 98.4557 92.8536 99.2347L91.4667 111.696C88.5479 113.252 85.4812 114.514 82.312 115.461L72.5192 107.625C71.9576 107.177 71.2602 106.933 70.5417 106.934H70.3518C68.7851 107.024 67.2146 107.024 65.6479 106.934C64.8655 106.886 64.0931 107.13 63.4805 107.619L53.693 115.461C50.5265 114.509 47.4632 113.242 44.5489 111.68L43.162 99.2242C43.0722 98.4452 42.6963 97.7273 42.1073 97.2097C40.933 96.1676 39.8219 95.0564 38.7797 93.8822C38.2621 93.2931 37.5443 92.9173 36.7653 92.8275L24.3041 91.4406C22.7493 88.5302 21.488 85.4724 20.5389 82.3122L28.3752 72.5195C28.8644 71.9069 29.1087 71.1345 29.0608 70.3521C28.9711 68.7854 28.9711 67.2149 29.0608 65.6482C29.1087 64.8657 28.8644 64.0934 28.3752 63.4808L20.5389 53.6933C21.4911 50.5268 22.7578 47.4635 24.32 44.5492L36.7758 43.1623C37.5548 43.0725 38.2727 42.6966 38.7903 42.1076C39.8324 40.9333 40.9436 39.8222 42.1178 38.78C42.7069 38.2624 43.0827 37.5445 43.1725 36.7656L44.5594 24.3044C47.4697 22.7496 50.5276 21.4883 53.6877 20.5392L63.4805 28.3755C64.0931 28.8646 64.8655 29.1089 65.6479 29.0611C67.2146 28.9713 68.7851 28.9713 70.3518 29.0611C71.1343 29.1089 71.9066 28.8646 72.5192 28.3755L82.3067 20.5392C85.4732 21.4914 88.5365 22.7581 91.4508 24.3203L92.8378 36.7867C92.9276 37.5656 93.3034 38.2835 93.8924 38.8011C95.0667 39.8433 96.1778 40.9544 97.22 42.1287C97.7376 42.7177 98.4555 43.0935 99.2344 43.1833L111.696 44.5703C113.25 47.4772 114.511 50.5315 115.461 53.688L107.624 63.4808C107.135 64.0934 106.891 64.8657 106.939 65.6482C107.029 67.2149 107.029 68.7854 106.939 70.3521C106.891 71.1345 107.135 71.9069 107.624 72.5195L115.461 82.307C114.512 85.4731 113.249 88.5364 111.69 91.4511H111.717Z" fill="#234C7A"/>
<g clip-path="url(#clip0_175_2286)">
<path d="M67.9998 49.11C62.8258 48.9537 57.8007 50.8537 54.0243 54.394C50.248 57.9344 48.0281 62.8266 47.8506 67.9999C48.0281 73.1732 50.248 78.0655 54.0243 81.6058C57.8007 85.1461 62.8258 87.0461 67.9998 86.8898C73.1738 87.0461 78.199 85.1461 81.9753 81.6058C85.7517 78.0655 87.9716 73.1732 88.1491 67.9999C87.9716 62.8266 85.7517 57.9344 81.9753 54.394C78.199 50.8537 73.1738 48.9537 67.9998 49.11ZM67.9998 83.7415C63.6606 83.8983 59.4359 82.3302 56.2499 79.3802C53.0639 76.4301 51.1759 72.3384 50.9989 67.9999C51.1759 63.6615 53.0639 59.5697 56.2499 56.6197C59.4359 53.6697 63.6606 52.1015 67.9998 52.2583C72.3391 52.1015 76.5637 53.6697 79.7498 56.6197C82.9358 59.5697 84.8238 63.6615 85.0008 67.9999C84.8238 72.3384 82.9358 76.4301 79.7498 79.3802C76.5637 82.3302 72.3391 83.8983 67.9998 83.7415Z" fill="#234C7A"/>
<path d="M69.5868 58.5547H66.4385V69.5864H75.556V66.4381H69.5868V58.5547Z" fill="#234C7A"/>
</g>
<defs>
<clipPath id="clip0_175_2286">
<rect width="40.2985" height="40.2985" fill="white" transform="translate(47.8506 47.8506)"/>
</clipPath>
</defs>
</svg>
